<?xml version="1.0" encoding="utf-8"?><svg viewBox="0 0 99 99" xmlns="http://www.w3.org/2000/svg" xmlns:xlink="http://www.w3.org/1999/xlink"><style>:root>svg{display:none}:root>svg:target{display:block}</style><svg fill="none" viewBox="0 0 99 99" id="Билет" xmlns="http://www.w3.org/2000/svg"><path d="M37.648 40.437h20.915m0 0v18.126m0-18.127L40.437 58.564" stroke="#fff" stroke-width="1.394"/><path d="m96.773 58.318.876.094.806-7.444L87.674 49.8l-.552 5.089c-.11 1.011.078 1.826.576 2.445.498.62 1.222.988 2.188 1.093.967.105 1.753-.1 2.372-.599.62-.498.976-1.254 1.086-2.265l.44-4.062 3.684.399-.695 6.418Zm-8.75-3.561.415-3.836 4.47.485-.415 3.835c-.082.755-.342 1.323-.78 1.703-.454.379-1.02.531-1.715.456-.695-.075-1.216-.346-1.563-.81-.362-.468-.494-1.078-.412-1.833ZM87.453 59.452l9.19 3.214.342-.975-10.237-3.58-.441 1.262 7.134 9.092-9.19-3.214-.341.975 10.237 3.58.44-1.262-7.134-9.092Z" fill="#FF4612"/><path d="M83.778 66.32c-.099.152-.202.34-.3.547-.098.208-.132.457-.116.739.017.282.144.617.339 1.015.203.385.543.839 1.051 1.367.496.52 1.175 1.12 2.022 1.796.848.675 1.933 1.43 3.26 2.288l.497.322-2.516 3.89-8.366-5.41-.561.867 9.107 5.888 3.62-5.599-1.288-.833a46.81 46.81 0 0 1-2.944-2.048 21.665 21.665 0 0 1-1.85-1.558c-.462-.461-.796-.84-.986-1.162-.202-.33-.316-.602-.353-.825-.05-.23-.035-.42.035-.556.057-.145.118-.268.176-.357.041-.064.12-.157.223-.29.104-.132.19-.238.27-.277l-.74-.478c-.029.017-.053.055-.12.102-.054.056-.095.12-.158.188-.062.068-.111.145-.174.213-.054.055-.095.12-.128.17ZM80.348 86.508l.623.623 5.295-5.295-7.669-7.668-5.348 5.348.623.623 4.618-4.618 3.029 3.028-4.275 4.275.623.623 4.274-4.275 2.771 2.771-4.564 4.565ZM80.415 87.595l-.494-.73-3.118 2.115-5.592-8.246-.855.58 5.593 8.246-3.13 2.123.494.729 7.102-4.817ZM60.151 96.476l.26.842 7.156-2.204-3.192-10.364-4.892 1.506c-.972.3-1.647.793-2.018 1.496-.372.702-.424 1.513-.138 2.442.286.93.785 1.57 1.488 1.942.702.371 1.537.4 2.51.1l3.905-1.202 1.09 3.542-6.169 1.9Zm-.19-9.445 3.687-1.135 1.322 4.297-3.687 1.135c-.725.223-1.35.209-1.872-.043-.527-.267-.892-.727-1.097-1.395-.206-.668-.163-1.253.127-1.755.286-.517.794-.88 1.52-1.104ZM55.395 88.355l.713 9.71 1.03-.076-.794-10.816-1.333.098-5.497 10.166-.713-9.71-1.03.076.794 10.816 1.333-.098 5.497-10.166Z" fill="#FF4612"/><path d="M47.509 87.698c-.18-.03-.392-.05-.622-.057-.23-.008-.472.06-.724.187s-.51.377-.797.714c-.272.34-.555.831-.837 1.508-.28.661-.562 1.523-.845 2.569-.282 1.046-.545 2.342-.805 3.9l-.098.584-4.57-.763 1.642-9.828-1.018-.17-1.787 10.696 6.577 1.099.252-1.513c.233-1.393.476-2.57.71-3.516.236-.946.473-1.722.696-2.317.24-.606.455-1.063.675-1.365.222-.317.427-.53.617-.652.192-.137.372-.2.524-.19.155-.004.292.003.397.02.075.013.192.048.354.09.163.043.295.08.362.138l.146-.868c-.028-.02-.073-.028-.143-.07-.072-.028-.147-.04-.234-.07-.088-.03-.178-.046-.265-.075-.072-.028-.147-.04-.207-.05ZM27.613 92.523l-.328.817 6.95 2.788 4.037-10.066-7.02-2.815-.328.817 6.061 2.432-1.594 3.975-5.61-2.25-.329.817 5.611 2.25-1.459 3.638-5.991-2.403ZM26.663 93.02l.475-.741-3.17-2.034 5.38-8.387-.87-.557-5.38 8.386-3.183-2.042-.476.742 7.224 4.633ZM10.524 77.9l-.67.572 4.855 5.7 8.256-7.03-3.319-3.898c-.66-.775-1.38-1.199-2.172-1.262-.792-.064-1.558.21-2.297.84-.74.63-1.132 1.342-1.195 2.134-.064.792.24 1.57.9 2.346l2.65 3.11-2.822 2.403-4.186-4.915Zm8.6-3.911 2.5 2.937-3.422 2.915-2.502-2.937c-.492-.578-.726-1.157-.7-1.737.036-.59.314-1.106.846-1.56.532-.452 1.086-.645 1.663-.577.588.058 1.122.38 1.614.959ZM16.103 70.35 7.46 74.83l.475.917 9.628-4.991-.615-1.187-11.51-1.048 8.644-4.48-.475-.917-9.628 4.99.615 1.187 11.51 1.048Z" fill="#FF4612"/><path d="M13.65 63.025a4.789 4.789 0 0 0-.194-.594c-.084-.214-.242-.41-.458-.59-.217-.182-.548-.32-.971-.45-.42-.115-.983-.18-1.717-.17-.718.005-1.62.087-2.693.242s-2.367.427-3.9.805l-.575.142-1.11-4.498 9.674-2.386-.247-1.003L.929 57.12l1.597 6.474 1.49-.367a46.846 46.846 0 0 1 3.51-.74 21.694 21.694 0 0 1 2.402-.28c.652-.02 1.157-.004 1.521.078.38.079.655.183.843.308.202.122.33.263.382.407.065.14.113.269.138.372.019.074.033.196.058.361.025.166.043.303.017.387l.856-.21c.007-.034-.004-.078.008-.16-.004-.076-.022-.15-.03-.242-.006-.092-.028-.18-.035-.273a1.069 1.069 0 0 0-.036-.21ZM1.306 46.789l-.88.027.231 7.484 10.84-.334-.234-7.56-.88.026.201 6.528-4.28.133-.188-6.043-.88.028.187 6.042-3.917.12-.2-6.451ZM.479 45.76l.869.144.62-3.715 9.828 1.642.17-1.019-9.828-1.642.623-3.73-.868-.145-1.414 8.464ZM7.94 25.09l-.79-.39-3.322 6.71 9.719 4.811 2.27-4.587c.452-.912.557-1.741.303-2.494-.254-.753-.807-1.349-1.678-1.78-.871-.431-1.68-.51-2.433-.255-.753.254-1.348.84-1.8 1.753l-1.812 3.661-3.322-1.644L7.94 25.09Zm6.987 6.357-1.712 3.458-4.029-1.995 1.712-3.457c.337-.68.777-1.124 1.32-1.33.555-.2 1.14-.147 1.766.163.626.31 1.022.743 1.187 1.3.179.562.093 1.18-.244 1.861ZM17.055 27.246 9.529 21.07l-.656.798 8.383 6.88.848-1.033-3.575-10.99 7.526 6.176.655-.798-8.383-6.88-.848 1.033 3.576 10.99Z" fill="#FF4612"/><path d="M22.959 21.949c.145-.11.306-.25.469-.412.163-.162.281-.384.362-.654.081-.271.077-.63.03-1.07-.06-.43-.223-.974-.52-1.644-.288-.658-.719-1.456-1.284-2.38-.566-.925-1.326-2.006-2.278-3.267l-.357-.472 3.695-2.793 6.008 7.949.824-.623-6.539-8.652-5.32 4.02.926 1.224a46.847 46.847 0 0 1 2.064 2.933 21.68 21.68 0 0 1 1.204 2.098c.276.591.46 1.061.528 1.429.077.38.09.674.049.896-.033.234-.111.407-.223.511-.103.116-.203.21-.288.274-.06.046-.166.107-.309.196-.142.089-.26.159-.349.168l.532.703c.033-.006.07-.034.148-.055.07-.034.13-.08.212-.122.082-.043.155-.098.237-.141.07-.034.13-.08.179-.116ZM33.123 4.154l-.37-.8-6.795 3.148 4.557 9.84 6.864-3.178-.37-.8-5.927 2.745-1.8-3.887 5.486-2.54-.37-.8-5.486 2.54-1.646-3.555 5.857-2.713ZM33.379 3.116l.21.855 3.658-.902 2.386 9.674 1.003-.248-2.386-9.673 3.672-.906-.211-.855-8.332 2.055ZM55.575 1.775l.047-.88-7.477-.404-.585 10.83 5.11.276c1.017.055 1.82-.176 2.412-.707.591-.53.92-1.273.973-2.244.053-.97-.195-1.744-.725-2.336-.531-.591-1.305-.907-2.321-.962l-4.08-.22.2-3.701 6.446.348Zm-3.084 8.93-3.852-.209.242-4.489 3.853.208c.758.041 1.339.27 1.742.688.403.432.586.99.548 1.688-.038.697-.28 1.232-.726 1.603-.447.387-1.049.552-1.807.51ZM57.323 11.03l2.724-9.348-.991-.289-3.035 10.412 1.283.374 8.703-7.605-2.724 9.347.992.289 3.034-10.412-1.283-.374-8.703 7.605Z" fill="#FF4612"/><path d="M64.247 14.27c.159.09.35.183.564.27.213.086.463.107.744.075.28-.033.608-.178.994-.394.373-.225.809-.588 1.308-1.126.491-.523 1.054-1.234 1.681-2.118.627-.883 1.322-2.008 2.106-3.38l.293-.514L75.96 9.38l-4.94 8.652.896.512 5.378-9.417-5.79-3.306-.761 1.332a46.852 46.852 0 0 1-1.883 3.052 21.65 21.65 0 0 1-1.454 1.934c-.435.486-.795.84-1.105 1.047-.319.22-.584.35-.805.398-.228.062-.418.059-.557-.003a2.094 2.094 0 0 1-.366-.157c-.066-.037-.164-.11-.301-.207-.138-.096-.25-.177-.293-.254l-.436.765c.019.028.058.05.109.115.058.05.124.088.196.147.072.058.15.103.222.162.059.05.125.088.177.118ZM84.578 16.556l.587-.655-5.575-4.999-7.24 8.075 5.633 5.05.588-.657-4.863-4.36 2.86-3.189 4.5 4.036.588-.656-4.5-4.036 2.615-2.917 4.806 4.309ZM85.637 16.369l-.7.533 2.282 2.997-7.928 6.036.626.822 7.927-6.036 2.291 3.009.701-.534-5.199-6.827Z" fill="#FF4612"/></svg></svg>