<svg width="264" height="68" viewBox="0 0 264 68" fill="none" xmlns="http://www.w3.org/2000/svg">
<path d="M20.0034 25H1.00342V44H20.0034V25Z" fill="#FF4612"/>
<path d="M67.0005 25H48.0005V44H67.0005V25Z" fill="#FF4612"/>
<path d="M44.0005 25H25.0005V44H44.0005V25Z" fill="white"/>
<path d="M19.999 1H0.999023V20H19.999V1Z" fill="#FF4612"/>
<path d="M43.9983 1H24.9983V20H43.9983V1Z" fill="#FF4612"/>
<path d="M66.9983 1H47.9983V20H66.9983V1Z" fill="#FF4612"/>
<path d="M19.998 48H0.998047V67H19.998V48Z" fill="#FF4612"/>
<path d="M43.998 48H24.998V67H43.998V48Z" fill="#FF4612"/>
<path d="M66.988 48H47.988V67H66.988V48Z" fill="#FF4612"/>
<path d="M85.4354 31.1296H85.5013L90.8604 21.0004H92.0017V32.798H90.4962V23.2419H90.4303L85.2034 33H84.9063L79.7957 23.174H79.7297V32.7976H79.0017V21H80.1265L85.4354 31.1296Z" fill="white"/>
<path d="M100.951 27.843H101.018L104.135 21H105.002L100.218 31.4823C100.062 31.8102 99.9015 32.0706 99.7346 32.2665C99.5677 32.4625 99.3988 32.6181 99.2264 32.7305C99.0539 32.8428 98.8763 32.9148 98.6924 32.9492C98.5097 32.9836 98.3349 33 98.168 33C97.7899 33 97.4482 32.9416 97.1429 32.8236C96.8372 32.7049 96.6074 32.5785 96.4512 32.4433L97.1516 30.8764C97.2956 31.0672 97.4787 31.2483 97.7013 31.4155C97.9236 31.5851 98.1684 31.6687 98.4346 31.6687C98.7905 31.6687 99.0488 31.5851 99.2097 31.4155C99.3707 31.2483 99.5067 31.0524 99.6179 30.8256L100.218 29.5447L95.0017 21.0004H96.785L100.951 27.843Z" fill="white"/>
<path d="M109.016 21.9454C108.698 22.089 108.442 22.2628 108.25 22.4669C108.059 22.6726 107.921 22.8964 107.839 23.1382C107.755 23.3825 107.709 23.6031 107.698 23.8013H106.447C106.458 23.3266 106.562 22.9133 106.76 22.5586C106.958 22.2054 107.224 21.9124 107.559 21.68C107.895 21.4487 108.292 21.2769 108.754 21.1667C109.216 21.0562 109.726 21 110.287 21C111.012 21 111.627 21.0861 112.132 21.2572C112.637 21.4295 113.052 21.6505 113.376 21.9195C113.7 22.1912 113.934 22.5011 114.076 22.848C114.219 23.1968 114.291 23.5469 114.291 23.902C114.291 24.2331 114.233 24.558 114.118 24.8789C114.002 25.1998 113.84 25.4833 113.631 25.7323C113.421 25.9812 113.171 26.1794 112.879 26.3301C112.588 26.4783 112.271 26.5526 111.93 26.5526V26.6187H112.045C112.409 26.6187 112.766 26.6887 113.118 26.8268C113.471 26.9644 113.785 27.163 114.062 27.423C114.339 27.6817 114.564 27.9928 114.739 28.3515C114.914 28.7109 115.002 29.1113 115.002 29.5537C115.002 29.9509 114.921 30.3525 114.762 30.7619C114.602 31.1713 114.335 31.5413 113.959 31.8725C113.584 32.2036 113.085 32.4746 112.462 32.685C111.839 32.8938 111.069 33 110.155 33C108.753 33 107.719 32.7381 107.052 32.2127C106.385 31.6872 106.035 30.9062 106.002 29.8668H107.57C107.581 30.0552 107.617 30.2848 107.677 30.5558C107.737 30.8264 107.861 31.0883 108.049 31.3416C108.236 31.5972 108.506 31.8155 108.858 31.996C109.21 32.1788 109.683 32.2717 110.278 32.2717C110.883 32.2717 111.384 32.1773 111.781 31.9889C112.178 31.8005 112.492 31.5665 112.722 31.2837C112.952 31.001 113.116 30.7001 113.209 30.3729C113.302 30.0465 113.349 29.7508 113.349 29.4857C113.349 29.0987 113.266 28.7515 113.102 28.4412C112.938 28.1324 112.709 27.8705 112.417 27.6554C112.124 27.4387 111.774 27.2767 111.368 27.1654C110.96 27.0549 110.508 27.0002 110.013 27.0002H108.858V26.2707H110.013C110.652 26.2707 111.155 26.1794 111.524 25.9981C111.893 25.8153 112.171 25.597 112.358 25.3421C112.545 25.0893 112.664 24.8297 112.713 24.5639C112.763 24.2988 112.787 24.0837 112.787 23.9177C112.787 23.2877 112.57 22.7654 112.136 22.3525C111.703 21.9368 111.069 21.7295 110.234 21.7295C109.74 21.7295 109.334 21.8019 109.016 21.9454Z" fill="white"/>
<path d="M127.002 21.0004V21.9425H120.612V26.2454H126.098V27.0675H120.612V32.0563H127.002V33H119.002V21L127.002 21.0004Z" fill="white"/>
<path d="M137.478 20.805H139.002V33H137.478V22.1114L130.524 33H129.002V20.805H130.524V31.5708L137.478 20.805ZM133.11 19.8901C132.786 19.8724 132.47 19.812 132.162 19.707C131.853 19.6028 131.587 19.4341 131.363 19.2022C131.139 18.9703 131.027 18.6396 131.027 18.2075V18H132.618C132.608 18.0575 132.599 18.112 132.593 18.1654C132.588 18.217 132.586 18.2729 132.586 18.3307C132.586 18.5738 132.636 18.7661 132.736 18.9058C132.836 19.0447 132.957 19.1497 133.096 19.2192C133.236 19.2886 133.381 19.3291 133.532 19.3411C133.681 19.3523 133.808 19.3589 133.908 19.3589C134.009 19.3589 134.132 19.3523 134.277 19.3411C134.422 19.3291 134.564 19.2886 134.705 19.2192C134.845 19.1497 134.965 19.0447 135.065 18.9058C135.165 18.7661 135.216 18.5738 135.216 18.3307C135.216 18.2724 135.214 18.217 135.206 18.1654C135.201 18.112 135.193 18.0571 135.181 18H136.807V18.2075C136.807 18.6396 136.694 18.9707 136.47 19.2022C136.246 19.4341 135.98 19.6028 135.673 19.707C135.365 19.812 135.045 19.8724 134.715 19.8901C134.385 19.9079 134.118 19.9154 133.917 19.9154C133.703 19.9154 133.435 19.9079 133.11 19.8901Z" fill="white"/>
<path d="M87.4771 38H89.0017V50H87.4771V39.2862L80.5263 50H79.0017V38H80.5263V48.5946L87.4771 38Z" fill="white"/>
<path d="M95.0175 38.9447C94.6986 39.089 94.4435 39.2628 94.2515 39.467C94.0595 39.6719 93.9216 39.8956 93.8393 40.1383C93.757 40.381 93.7104 40.6032 93.6994 40.8022H92.4484C92.4586 40.3251 92.5636 39.9133 92.7614 39.5586C92.9589 39.2054 93.2257 38.9124 93.5603 38.6808C93.8957 38.448 94.2938 38.2777 94.755 38.1668C95.2162 38.0562 95.7263 38 96.287 38C97.0126 38 97.627 38.0861 98.1324 38.258C98.6375 38.4287 99.0528 38.6489 99.3765 38.9203C99.7005 39.1909 99.9336 39.5004 100.077 39.8488C100.22 40.1973 100.291 40.5477 100.291 40.9005C100.291 41.2332 100.234 41.5589 100.118 41.8774C100.003 42.1983 99.8396 42.4827 99.6307 42.7316C99.4211 42.9798 99.1712 43.1804 98.8792 43.3298C98.5877 43.4773 98.2712 43.5524 97.9303 43.5524V43.6201H98.0459C98.4091 43.6201 98.7668 43.6877 99.119 43.8273C99.4705 43.9642 99.7851 44.1632 100.062 44.4236C100.339 44.6824 100.564 44.9911 100.739 45.3506C100.914 45.7092 101.002 46.1112 101.002 46.5528C101.002 46.9501 100.922 47.3547 100.762 47.7618C100.602 48.1712 100.334 48.5405 99.9595 48.8732C99.5845 49.2044 99.0857 49.4746 98.4628 49.685C97.839 49.8938 97.0698 50 96.1546 50C94.7542 50 93.7202 49.7381 93.053 49.2111C92.3857 48.6872 92.035 47.9061 92.0017 46.8659H93.5713C93.5819 47.0543 93.6176 47.284 93.6783 47.5541C93.7386 47.8251 93.8624 48.087 94.0497 48.3415C94.2366 48.5964 94.5058 48.8154 94.858 48.9967C95.2103 49.1788 95.684 49.2701 96.2788 49.2701C96.8833 49.2701 97.3845 49.1757 97.781 48.9873C98.1771 48.8005 98.4914 48.5649 98.7225 48.2837C98.9533 48.0017 99.1159 47.6969 99.2095 47.3736C99.3028 47.0464 99.3494 46.7507 99.3494 46.4856C99.3494 46.0994 99.2667 45.7505 99.103 45.441C98.938 45.1323 98.71 44.8703 98.4177 44.6536C98.1246 44.4377 97.7751 44.2757 97.3672 44.1652C96.9605 44.0555 96.5092 43.9992 96.0139 43.9992H94.8577V43.2697H96.0139C96.6526 43.2697 97.156 43.1796 97.5247 42.9971C97.893 42.815 98.1708 42.5968 98.3585 42.3427C98.5458 42.089 98.6641 41.8287 98.7135 41.564C98.7629 41.2981 98.7876 41.083 98.7876 40.9166C98.7876 40.2874 98.5705 39.7643 98.1368 39.3513C97.703 38.9364 97.0687 38.7307 96.2349 38.7307C95.7412 38.7303 95.3353 38.8027 95.0175 38.9447Z" fill="white"/>
<path d="M103.367 41.9945C103.611 41.2878 103.993 40.6373 104.513 40.0474C105.036 39.4575 105.698 38.969 106.502 38.5817C107.306 38.1943 108.269 38 109.391 38C110.524 38 111.506 38.1959 112.339 38.5891C113.172 38.98 113.86 39.4764 114.404 40.0722C114.948 40.668 115.351 41.3173 115.61 42.0185C115.871 42.7205 116.002 43.3812 116.002 43.9994C116.002 44.408 115.942 44.8398 115.823 45.2929C115.704 45.7459 115.528 46.1962 115.296 46.6434C115.064 47.0913 114.767 47.5161 114.404 47.9208C114.041 48.3223 113.614 48.679 113.12 48.9877C112.628 49.2972 112.073 49.5438 111.455 49.7267C110.838 49.908 110.15 50 109.391 50C108.269 50 107.306 49.8034 106.502 49.4117C105.698 49.0184 105.036 48.5244 104.513 47.9286C103.993 47.3308 103.611 46.6819 103.367 45.9799C103.123 45.2803 103.002 44.6188 103.002 43.9998C103.001 43.3717 103.123 42.702 103.367 41.9945ZM105.032 46.1306C105.276 46.7767 105.61 47.3312 106.035 47.7949C106.46 48.2598 106.96 48.6216 107.539 48.8803C108.116 49.1399 108.745 49.2705 109.425 49.2705C110.093 49.2705 110.724 49.1399 111.32 48.8803C111.915 48.6216 112.435 48.2598 112.882 47.7949C113.33 47.3308 113.683 46.7763 113.945 46.1306C114.205 45.4832 114.336 44.7742 114.336 43.9998C114.336 43.227 114.205 42.5168 113.945 41.8706C113.684 41.2245 113.33 40.6684 112.882 40.2047C112.435 39.7414 111.915 39.3796 111.32 39.1185C110.724 38.8597 110.093 38.7307 109.425 38.7307C108.745 38.7307 108.116 38.8597 107.539 39.1185C106.96 39.3796 106.46 39.7414 106.035 40.2047C105.61 40.6688 105.276 41.2249 105.032 41.8706C104.789 42.5164 104.667 43.227 104.667 43.9998C104.667 44.7742 104.788 45.4832 105.032 46.1306Z" fill="white"/>
<path d="M120.484 43.2454H122.75C123.596 43.2454 124.294 43.3455 124.843 43.5464C125.391 43.7458 125.825 44.0065 126.145 44.3275C126.465 44.6468 126.688 45.006 126.814 45.4062C126.939 45.8065 127.002 46.2072 127.002 46.6058C127.002 47.0053 126.939 47.406 126.814 47.8062C126.689 48.2065 126.469 48.5689 126.154 48.8948C125.839 49.2206 125.407 49.4866 124.859 49.6925C124.311 49.8975 123.608 50 122.75 50H119.002V38H125.959V38.9437H120.484V43.2454ZM122.725 49.2804C123.06 49.2804 123.388 49.2239 123.707 49.1096C124.027 48.9952 124.309 48.8321 124.553 48.6194C124.795 48.4079 124.993 48.1443 125.144 47.8233C125.296 47.504 125.373 47.1383 125.373 46.7262C125.373 46.3378 125.308 45.9761 125.177 45.6377C125.048 45.3001 124.865 45.0125 124.633 44.7717C124.401 44.5308 124.113 44.3441 123.772 44.2066C123.432 44.0683 123.051 44 122.628 44H120.484V49.28H122.725V49.2804Z" fill="white"/>
<path d="M131.574 50H130.002V38H134.045C134.713 38 135.294 38.0976 135.79 38.2925C136.286 38.4873 136.699 38.746 137.026 39.0719C137.355 39.3977 137.599 39.7813 137.761 40.2206C137.923 40.6607 138.002 41.12 138.002 41.6016C138.002 42.102 137.91 42.5742 137.726 43.0152C137.541 43.4553 137.267 43.8438 136.906 44.1814C136.542 44.5174 136.09 44.7835 135.547 44.9791C135.007 45.1723 134.384 45.27 133.682 45.27C133.267 45.27 132.887 45.2452 132.542 45.1923C132.196 45.1406 131.873 45.0747 131.574 44.9962V50ZM131.574 44.2921C131.816 44.3836 132.087 44.4422 132.386 44.4715C132.686 44.4999 133.013 44.5138 133.37 44.5138C133.889 44.5138 134.332 44.4287 134.701 44.2571C135.071 44.0862 135.375 43.8621 135.618 43.5887C135.859 43.3146 136.035 43.0103 136.145 42.6702C136.254 42.3342 136.309 41.9999 136.309 41.6692C136.309 41.325 136.249 40.9797 136.127 40.6306C136.006 40.2829 135.824 39.9688 135.581 39.6894C135.34 39.4091 135.035 39.1841 134.667 39.0117C134.297 38.84 133.872 38.7542 133.388 38.7542H131.574L131.574 44.2921Z" fill="white"/>
<path d="M141.195 46.47L139.755 50H139.002L143.847 38H144.666L150.002 50H148.414L146.843 46.47H141.195ZM143.929 39.9208H143.864L141.507 45.6967H146.499L143.929 39.9208Z" fill="white"/>
<path d="M155.018 38.9447C154.699 39.089 154.444 39.2628 154.251 39.467C154.06 39.6719 153.922 39.8956 153.839 40.1383C153.757 40.381 153.71 40.6032 153.7 40.8022H152.448C152.459 40.3251 152.563 39.9133 152.761 39.5586C152.959 39.2054 153.226 38.9124 153.56 38.6808C153.895 38.448 154.294 38.2777 154.755 38.1668C155.216 38.0562 155.727 38 156.288 38C157.013 38 157.628 38.0861 158.133 38.258C158.638 38.4287 159.053 38.6489 159.377 38.9203C159.7 39.1909 159.935 39.5004 160.078 39.8488C160.22 40.1977 160.292 40.5477 160.292 40.9005C160.292 41.2332 160.234 41.5589 160.118 41.8774C160.003 42.1983 159.84 42.4827 159.631 42.7316C159.422 42.9798 159.171 43.1804 158.88 43.3298C158.588 43.4773 158.271 43.5524 157.93 43.5524V43.6201H158.046C158.41 43.6201 158.767 43.6877 159.12 43.8273C159.471 43.9642 159.786 44.1632 160.062 44.4236C160.34 44.6824 160.566 44.9911 160.74 45.3506C160.914 45.7092 161.002 46.1112 161.002 46.5528C161.002 46.9501 160.921 47.3547 160.762 47.7618C160.602 48.1712 160.334 48.5405 159.959 48.8732C159.585 49.2044 159.086 49.4746 158.462 49.685C157.839 49.8938 157.069 50 156.154 50C154.753 50 153.719 49.7381 153.053 49.2111C152.385 48.6872 152.035 47.9061 152.002 46.8659H153.571C153.58 47.0543 153.617 47.284 153.678 47.5541C153.739 47.8251 153.861 48.087 154.049 48.3415C154.236 48.5964 154.506 48.8154 154.858 48.9967C155.209 49.1788 155.683 49.2701 156.278 49.2701C156.884 49.2701 157.384 49.1757 157.782 48.9873C158.177 48.8005 158.49 48.5649 158.722 48.2837C158.952 48.0017 159.115 47.6969 159.209 47.3736C159.302 47.0464 159.349 46.7507 159.349 46.4856C159.349 46.0994 159.267 45.7505 159.103 45.441C158.937 45.1323 158.709 44.8703 158.417 44.6536C158.124 44.4377 157.775 44.2757 157.367 44.1652C156.96 44.0555 156.509 43.9992 156.014 43.9992H154.858V43.2697H156.014C156.652 43.2697 157.156 43.1796 157.524 42.9971C157.893 42.815 158.171 42.5968 158.358 42.3427C158.546 42.089 158.664 41.8287 158.713 41.564C158.762 41.2981 158.788 41.083 158.788 40.9166C158.788 40.2874 158.571 39.7643 158.137 39.3513C157.703 38.9364 157.069 38.7307 156.235 38.7307C155.742 38.7303 155.335 38.8027 155.018 38.9447Z" fill="white"/>
<path d="M172.476 38H174.002V50H172.476V39.2862L165.524 50H164.002V38H165.524V48.5946L172.476 38Z" fill="white"/>
<path d="M181.703 50V38.9437H177.002V38H188.002V38.9437H183.298V50H181.703Z" fill="white"/>
<path d="M197.002 38.0004V38.9441H190.612V43.2454H196.1V44.0683H190.612V49.0579H197.002V50H189.002V38L197.002 38.0004Z" fill="white"/>
<path d="M210.002 49.7969H208.373L204.215 39.8887H204.149L200.944 48.2301C200.725 48.8035 200.477 49.2414 200.196 49.5437C199.917 49.8476 199.602 50 199.252 50C199.032 50 198.816 49.982 198.603 49.9492C198.389 49.9148 198.188 49.8656 198.002 49.7969L198.447 48.652C198.556 48.7075 198.675 48.7747 198.807 48.8543C198.94 48.9315 199.076 48.9707 199.219 48.9707C199.58 48.9707 199.846 48.8199 200.017 48.516C200.186 48.2121 200.365 47.8082 200.549 47.3023L204.1 38H205.004L210.002 49.7969Z" fill="white"/>
<path d="M213.002 38H214.491V43.2452H216.993C217.714 43.2452 218.327 43.3388 218.834 43.5296C219.341 43.7171 219.756 43.9603 220.077 44.2573C220.4 44.555 220.633 44.8975 220.78 45.286C220.928 45.6736 221.002 46.0637 221.002 46.4514C221.002 46.8622 220.933 47.2759 220.797 47.6932C220.661 48.1118 220.434 48.4909 220.118 48.835C219.802 49.1775 219.382 49.4562 218.859 49.6742C218.334 49.8918 217.68 50 216.895 50H213.002V38ZM216.813 49.2454C217.195 49.2454 217.541 49.1771 217.852 49.0404C218.163 48.9013 218.429 48.7146 218.653 48.4738C218.877 48.233 219.051 47.9568 219.177 47.6428C219.302 47.3296 219.366 46.9944 219.366 46.6401C219.366 46.2626 219.296 45.9108 219.162 45.585C219.024 45.2591 218.834 44.9797 218.588 44.7454C218.342 44.5111 218.048 44.3285 217.704 44.1971C217.361 44.0645 216.988 43.9994 216.584 43.9994H214.491V49.245L216.813 49.2454Z" fill="white"/>
<path d="M225.517 50H224.002V38H225.517V43.2454H232.488V38H234.002V50H232.488V44.035H225.517V50Z" fill="white"/>
<path d="M238.002 38H239.474V43.2452H241.949C242.661 43.2452 243.267 43.3388 243.769 43.5296C244.271 43.7171 244.681 43.9603 244.997 44.2573C245.317 44.555 245.548 44.8975 245.694 45.286C245.841 45.6736 245.913 46.0637 245.913 46.4514C245.913 46.8622 245.845 47.2759 245.71 47.6932C245.576 48.1118 245.351 48.4909 245.039 48.835C244.726 49.1775 244.311 49.4562 243.794 49.6742C243.275 49.8918 242.628 50 241.852 50H238.002V38ZM241.77 49.2454C242.148 49.2454 242.491 49.1771 242.798 49.0404C243.106 48.9013 243.37 48.7146 243.592 48.4738C243.812 48.233 243.985 47.9568 244.108 47.6428C244.233 47.3296 244.294 46.9944 244.294 46.6401C244.294 46.2626 244.227 45.9108 244.093 45.585C243.958 45.2591 243.769 44.9797 243.526 44.7454C243.283 44.5111 242.992 44.3285 242.652 44.1971C242.313 44.0645 241.943 43.9994 241.544 43.9994H239.473V49.245L241.77 49.2454ZM249.002 38V49.9996H247.531V38H249.002Z" fill="white"/>
<path d="M257.443 42.7138H257.526L261.049 38H261.932L257.944 43.365L263.002 50H261.115L257.043 44.635H256.976L252.986 50H252.085L256.559 44.0167L252.002 38H253.872L257.443 42.7138Z" fill="white"/>
<path d="M87.4769 56H89.0015V68H87.4769V57.2855L80.5261 68H79.0015V56H80.5261V66.5953L87.4769 56Z" fill="white"/>
<path d="M104.001 66.1102C103.851 66.2762 103.63 66.4689 103.339 66.6903C103.048 66.911 102.687 67.1182 102.25 67.3125C101.815 67.5052 101.304 67.6673 100.718 67.7994C100.132 67.9331 99.4667 68 98.7241 68C97.5516 68 96.5412 67.825 95.694 67.4777C94.8452 67.1296 94.1496 66.671 93.6045 66.1011C93.0586 65.5336 92.6544 64.8811 92.3937 64.1453C92.1316 63.4102 92.0015 62.6566 92.0015 61.8838C92.0015 60.9874 92.1647 60.1792 92.4895 59.4555C92.8148 58.7311 93.2731 58.1136 93.8657 57.5995C94.4575 57.0847 95.1683 56.6898 95.9986 56.4134C96.8288 56.1369 97.7488 56 98.7592 56C99.456 56 100.077 56.0661 100.623 56.1974C101.168 56.3312 101.645 56.5117 102.051 56.7445C102.457 56.9773 102.797 57.2538 103.07 57.5732C103.343 57.8934 103.566 58.2422 103.74 58.6178H102.452C102.37 58.385 102.228 58.1569 102.026 57.9287C101.821 57.7038 101.561 57.5024 101.242 57.3258C100.922 57.1476 100.556 57.0049 100.144 56.8948C99.7328 56.7842 99.2766 56.728 98.777 56.728C98.0455 56.728 97.3694 56.8546 96.7482 57.1091C96.1267 57.364 95.5903 57.7168 95.1373 58.1706C94.684 58.6237 94.3331 59.161 94.0843 59.7859C93.8347 60.4113 93.7095 61.0988 93.7095 61.8492C93.7095 62.5567 93.8289 63.2363 94.067 63.8873C94.3042 64.5409 94.6555 65.1147 95.12 65.6119C95.5845 66.1098 96.1651 66.5066 96.8619 66.8055C97.5582 67.1029 98.3596 67.2527 99.265 67.2527C100.891 67.2527 102.295 66.7218 103.48 65.6618L104.001 66.1102Z" fill="white"/>
<path d="M106.001 56H107.587V62.755L114.121 56H114.991L110.566 60.6466L116.001 68H114.191L109.556 61.7087L107.587 63.7843V68H106.001V56Z" fill="white"/>
<path d="M122.951 62.8434H123.018L126.134 56H127.001L122.218 66.4824C122.062 66.8087 121.902 67.0706 121.735 67.2666C121.567 67.4625 121.398 67.6165 121.226 67.7305C121.054 67.8412 120.876 67.914 120.693 67.9492C120.509 67.9836 120.335 68 120.168 68C119.79 68 119.449 67.94 119.143 67.8221C118.838 67.7033 118.607 67.5777 118.451 67.4433L119.151 65.875C119.296 66.0669 119.478 66.2477 119.702 66.4156C119.924 66.5844 120.168 66.6688 120.434 66.6688C120.79 66.6688 121.048 66.5844 121.21 66.4156C121.371 66.2477 121.507 66.0501 121.618 65.8258L122.218 64.5449L117.001 56.0004H118.785L122.951 62.8434Z" fill="white"/>
<path d="M140.001 66.1102C139.851 66.2762 139.63 66.4689 139.339 66.6903C139.05 66.911 138.686 67.1182 138.251 67.3125C137.814 67.5052 137.304 67.6673 136.718 67.7994C136.132 67.9331 135.466 68 134.724 68C133.551 68 132.541 67.825 131.693 67.4777C130.846 67.1296 130.15 66.671 129.605 66.1011C129.058 65.5336 128.655 64.8811 128.393 64.1453C128.132 63.4102 128.001 62.6566 128.001 61.8838C128.001 60.9874 128.164 60.1792 128.49 59.4555C128.814 58.7311 129.273 58.1136 129.866 57.5995C130.457 57.0847 131.167 56.6898 131.998 56.4134C132.829 56.1369 133.749 56 134.759 56C135.456 56 136.075 56.0661 136.623 56.1974C137.168 56.3312 137.644 56.5117 138.051 56.7445C138.456 56.9773 138.796 57.2538 139.07 57.5732C139.343 57.8934 139.566 58.2422 139.741 58.6178H138.451C138.369 58.385 138.227 58.1569 138.026 57.9287C137.821 57.7038 137.56 57.5024 137.241 57.3258C136.922 57.1476 136.557 57.0049 136.144 56.8948C135.731 56.7842 135.275 56.728 134.777 56.728C134.045 56.728 133.369 56.8546 132.748 57.1091C132.127 57.364 131.59 57.7168 131.137 58.1706C130.684 58.6237 130.334 59.161 130.085 59.7859C129.834 60.4113 129.709 61.0988 129.709 61.8492C129.709 62.5567 129.828 63.2363 130.066 63.8873C130.303 64.5409 130.655 65.1147 131.118 65.6119C131.584 66.1098 132.164 66.5066 132.861 66.8055C133.558 67.1029 134.359 67.2527 135.265 67.2527C136.89 67.2527 138.295 66.7218 139.48 65.6618L140.001 66.1102Z" fill="white"/>
<path d="M153.001 66.1102C152.851 66.2762 152.63 66.4689 152.339 66.6903C152.05 66.911 151.687 67.1182 151.251 67.3125C150.815 67.5052 150.305 67.6673 149.719 67.7994C149.133 67.9331 148.468 68 147.726 68C146.551 68 145.542 67.825 144.694 67.4777C143.848 67.1296 143.15 66.671 142.604 66.1011C142.058 65.5336 141.654 64.8811 141.394 64.1453C141.132 63.4102 141.001 62.6566 141.001 61.8838C141.001 60.9874 141.165 60.1792 141.49 59.4555C141.816 58.7311 142.274 58.1136 142.865 57.5995C143.459 57.0847 144.169 56.6898 145 56.4134C145.829 56.1369 146.748 56 147.759 56C148.457 56 149.077 56.0661 149.623 56.1974C150.167 56.3312 150.645 56.5117 151.05 56.7445C151.457 56.9773 151.797 57.2538 152.069 57.5732C152.343 57.8934 152.567 58.2422 152.74 58.6178H151.452C151.37 58.385 151.228 58.1569 151.026 57.9287C150.822 57.7038 150.559 57.5024 150.241 57.3258C149.922 57.1476 149.556 57.0049 149.145 56.8948C148.733 56.7842 148.276 56.728 147.778 56.728C147.046 56.728 146.37 56.8546 145.748 57.1091C145.127 57.364 144.591 57.7168 144.138 58.1706C143.686 58.6237 143.334 59.161 143.085 59.7859C142.835 60.4113 142.709 61.0988 142.709 61.8492C142.709 62.5567 142.829 63.2363 143.067 63.8873C143.304 64.5409 143.655 65.1147 144.119 65.6119C144.585 66.1098 145.165 66.5066 145.861 66.8055C146.559 67.1029 147.359 67.2527 148.265 67.2527C149.891 67.2527 151.296 66.7218 152.48 65.6618L153.001 66.1102Z" fill="white"/>
<path d="M158.705 68V56.943H154.001V56H165.001V56.943H160.301V68H158.705Z" fill="white"/>
<path d="M167.001 56H171.068C171.632 56 172.121 56.0899 172.54 56.2661C172.955 56.4443 173.298 56.6688 173.564 56.943C173.83 57.2172 174.027 57.5199 174.158 57.8518C174.287 58.1838 174.353 58.5097 174.353 58.829C174.353 59.1944 174.277 59.541 174.125 59.8652C173.973 60.1911 173.77 60.4779 173.516 60.7224C173.262 60.9685 172.967 61.1699 172.633 61.3241C172.297 61.4774 171.94 61.5551 171.561 61.5551V61.6235C171.799 61.6345 172.113 61.6735 172.503 61.7427C172.891 61.8127 173.271 61.9494 173.637 62.1552C174.007 62.3602 174.325 62.6572 174.594 63.0465C174.867 63.4351 175.001 63.9538 175.001 64.6055C175.001 65.0196 174.933 65.4277 174.797 65.8308C174.661 66.2377 174.441 66.6018 174.137 66.9211C173.834 67.2405 173.431 67.5012 172.933 67.7022C172.432 67.9015 171.819 68 171.09 68H167.001V56ZM170.426 61.2464C170.75 61.2464 171.055 61.1882 171.342 61.0747C171.63 60.9604 171.882 60.8005 172.106 60.5946C172.327 60.3888 172.499 60.1427 172.625 59.8579C172.748 59.5719 172.811 59.2627 172.811 58.9324C172.811 58.6696 172.767 58.4055 172.68 58.1427C172.593 57.8803 172.456 57.646 172.268 57.4393C172.077 57.2351 171.833 57.0675 171.536 56.9426C171.24 56.8161 170.881 56.7542 170.459 56.7542H168.478V61.246L170.426 61.2464ZM170.838 67.247C171.186 67.247 171.515 67.1921 171.824 67.0842C172.134 66.9764 172.402 66.8133 172.63 66.5956C172.858 66.378 173.039 66.1156 173.175 65.8072C173.311 65.4981 173.38 65.1429 173.38 64.7426C173.38 64.3781 173.317 64.029 173.192 63.6987C173.068 63.3675 172.877 63.075 172.621 62.8256C172.367 62.573 172.045 62.372 171.653 62.224C171.263 62.0746 170.801 61.9998 170.269 61.9998H168.479V67.247H170.838Z" fill="white"/>
<path d="M84.0007 2V9H83.1371V6.22999C82.4906 6.51629 81.8946 6.65987 81.3478 6.65987C80.6028 6.65987 80.026 6.45342 79.6157 6.04011C79.2053 5.62595 79.0007 5.0372 79.0007 4.26962V2.00042H79.8559V4.15917C79.8559 4.67953 79.9941 5.07925 80.2707 5.36131C80.5461 5.64081 80.9382 5.77929 81.4438 5.77929C82.008 5.77929 82.5729 5.63317 83.1371 5.34049V2.00042L84.0007 2Z" fill="white"/>
<path d="M91 8.12962V9H86V2H90.862V2.86953H86.9844V5.01936H90.4386V5.86977H86.9844V8.12962H91Z" fill="white"/>
<path d="M98 2.00042V8.92188H97.1198V2.86019H94.335L94.2724 4.88719C94.2423 5.84357 94.1721 6.61725 94.0618 7.21031C93.9504 7.80421 93.7753 8.25153 93.5361 8.55058C93.2965 8.85089 92.9729 9 92.5658 9C92.3804 9 92.1915 8.97354 92 8.92104L92.0633 8.04152C92.1583 8.06798 92.2545 8.081 92.351 8.081C92.6082 8.081 92.8142 7.9676 92.9702 7.73911C93.1255 7.51188 93.2426 7.17041 93.3209 6.71595C93.3979 6.26065 93.4491 5.66003 93.4735 4.91534L93.5715 2L98 2.00042Z" fill="white"/>
<path d="M105 2V9H104.131V6.95977H102.42C102.314 6.95977 102.234 6.95637 102.182 6.95L100.94 9H100L101.374 6.77966C100.93 6.61357 100.59 6.33491 100.355 5.94496C100.118 5.55416 100 5.07883 100 4.51981C100 3.72589 100.226 3.10868 100.678 2.66478C101.13 2.22174 101.74 2.00042 102.508 2.00042L105 2ZM101.299 5.70453C101.568 5.98064 101.965 6.11955 102.492 6.11955H104.131V2.86996H102.544C102.013 2.86996 101.605 3.01013 101.321 3.28964C101.037 3.56915 100.895 3.97652 100.895 4.51004C100.895 5.02998 101.03 5.428 101.299 5.70453Z" fill="white"/>
<path d="M107 2H111.615V2.84957H107.865V4.84987H109.77C110.499 4.84987 111.052 5.02318 111.432 5.37023C111.811 5.71728 112 6.21555 112 6.86929C112 7.55616 111.794 8.08289 111.383 8.44906C110.972 8.81565 110.386 9 109.622 9H107V2ZM109.586 8.2099C110.088 8.2099 110.47 8.09946 110.732 7.87985C110.994 7.65981 111.125 7.3374 111.125 6.91007C111.125 6.06305 110.613 5.64082 109.586 5.64082H107.865V8.21033L109.586 8.2099Z" fill="white"/>
<path d="M114 2H114.982V7.39942L119.088 2H120V9H119.027V3.6095L114.912 8.99958H114V2Z" fill="white"/>
<path d="M127 2V9H126.003V5.87869H121.997V9H121V2H121.997V5.00916H126.003V2H127Z" fill="white"/>
<path d="M130.701 8.54639C130.169 8.24317 129.753 7.82695 129.452 7.29527C129.151 6.764 129 6.16585 129 5.50083C129 4.83622 129.151 4.23848 129.452 3.70638C129.753 3.17511 130.171 2.7589 130.705 2.45526C131.239 2.15244 131.835 2 132.494 2C133.009 2 133.48 2.08931 133.906 2.26834C134.334 2.44778 134.699 2.71279 135 3.06586L134.388 3.68229C133.892 3.14022 133.272 2.87022 132.531 2.87022C132.042 2.87022 131.6 2.98362 131.204 3.21166C130.809 3.44054 130.499 3.7554 130.276 4.15582C130.053 4.55583 129.942 5.00528 129.942 5.49999C129.942 5.99554 130.053 6.44415 130.276 6.84417C130.499 7.24501 130.809 7.55986 131.204 7.78832C131.6 8.01637 132.042 8.12976 132.531 8.12976C133.267 8.12976 133.885 7.85645 134.388 7.30856L135 7.92498C134.699 8.27723 134.333 8.54307 133.902 8.72667C133.472 8.9086 132.999 8.99999 132.484 8.99999C131.825 9.00165 131.23 8.85087 130.701 8.54639Z" fill="white"/>
<path d="M138.086 5.92032H136.837V9H136V2H136.837V5.03975H138.102L139.984 2H140.897L138.76 5.38934L141 9H140.026L138.086 5.92032Z" fill="white"/>
<path d="M142 2H142.981V7.39942L147.088 2H148V9H147.028V3.6095L142.912 8.99958H142V2Z" fill="white"/>
<path d="M150 1.89017H150.982V7.37431L155.087 1.89017H156V9H155.028V3.52493L150.912 8.99957H150V1.89017ZM151.731 1.03159C151.436 0.791276 151.285 0.447411 151.279 0H151.982C151.989 0.264477 152.081 0.468553 152.255 0.615246C152.431 0.761075 152.673 0.832694 152.984 0.832694C153.281 0.832694 153.522 0.761075 153.704 0.615246C153.886 0.468553 153.98 0.264477 153.986 0H154.679C154.673 0.440508 154.523 0.782216 154.229 1.02555C153.935 1.26975 153.52 1.39228 152.984 1.39228C152.443 1.39228 152.025 1.27191 151.731 1.03159Z" fill="white"/>
<path d="M163.991 2.86953H160.854L160.863 9H160V2H164L163.991 2.86953Z" fill="white"/>
<path d="M165.713 8.54485C165.18 8.24169 164.76 7.82309 164.456 7.28862C164.151 6.75498 164 6.15781 164 5.5C164 4.84219 164.151 4.24543 164.456 3.71055C164.76 3.17691 165.18 2.75831 165.713 2.45515C166.246 2.15241 166.845 2 167.509 2C168.168 2 168.763 2.15241 169.297 2.45515C169.83 2.75831 170.247 3.17442 170.548 3.70598C170.849 4.23796 171 4.83596 171 5.5C171 6.16528 170.849 6.76287 170.548 7.29402C170.247 7.82517 169.83 8.24128 169.297 8.54485C168.763 8.84884 168.168 9 167.509 9C166.845 9 166.246 8.84925 165.713 8.54485ZM168.812 7.7882C169.198 7.55938 169.501 7.2446 169.725 6.84427C169.947 6.44435 170.059 5.99585 170.059 5.50041C170.059 5.00581 169.947 4.55648 169.725 4.15656C169.501 3.75581 169.198 3.44103 168.812 3.21262C168.426 2.98463 167.992 2.87126 167.509 2.87126C167.026 2.87126 166.588 2.98463 166.197 3.21262C165.804 3.44144 165.497 3.75623 165.275 4.15656C165.051 4.55648 164.941 5.00581 164.941 5.50041C164.941 5.99585 165.051 6.44435 165.275 6.84427C165.497 7.24502 165.804 7.5598 166.197 7.7882C166.589 8.01619 167.026 8.12957 167.509 8.12957C167.992 8.12957 168.426 8.01619 168.812 7.7882Z" fill="white"/>
<path d="M173.701 8.54639C173.17 8.24317 172.755 7.82695 172.454 7.29527C172.153 6.76358 172 6.16585 172 5.50083C172 4.83622 172.153 4.23848 172.454 3.70638C172.755 3.17511 173.17 2.7589 173.706 2.45526C174.239 2.15244 174.836 2 175.495 2C176.009 2 176.481 2.08931 176.908 2.26834C177.336 2.44736 177.698 2.71279 178 3.06586L177.388 3.68229C176.893 3.14022 176.273 2.87022 175.532 2.87022C175.043 2.87022 174.6 2.98362 174.205 3.21166C173.81 3.44054 173.5 3.7554 173.277 4.15582C173.054 4.55583 172.943 5.00528 172.943 5.49999C172.943 5.99554 173.054 6.44415 173.277 6.84417C173.501 7.24501 173.81 7.55986 174.205 7.78832C174.6 8.01637 175.043 8.12976 175.532 8.12976C176.268 8.12976 176.885 7.85645 177.388 7.30856L178 7.92498C177.698 8.27723 177.334 8.54307 176.902 8.72667C176.473 8.9086 176.001 8.99999 175.485 8.99999C174.827 9.00165 174.231 8.85087 173.701 8.54639Z" fill="white"/>
<path d="M185 2L182.198 7.65697C181.976 8.10673 181.714 8.44363 181.414 8.66643C181.114 8.88923 180.787 9 180.432 9C180.156 9 179.874 8.9317 179.585 8.79344L179.819 8.00928C180.042 8.09465 180.24 8.13713 180.414 8.13713C180.811 8.13713 181.139 7.90767 181.396 7.45166L181.541 7.20513L179 2.00042H179.964L182.011 6.35267L184.11 2.00042L185 2Z" fill="white"/>
<path d="M192 7.74901V10H191.147V8.56494H185.861L185.853 10H185L185.008 7.74901H185.321C185.724 7.72391 186.01 7.39721 186.174 6.76932C186.338 6.14064 186.44 5.25418 186.477 4.10956L186.541 2H191.055V7.74901H192ZM187.067 6.49243C186.956 7.09841 186.773 7.51873 186.523 7.74901H190.147V2.81554H187.33L187.284 4.19522C187.254 5.11952 187.181 5.88526 187.067 6.49243Z" fill="white"/>
<path d="M197.265 7.24862H193.716L192.982 9H192L195.023 2H195.967L199 9H197.998L197.265 7.24862ZM196.931 6.4496L195.49 3.0199L194.05 6.4496H196.931Z" fill="white"/>
<path d="M204.31 2.64868C204.77 3.08241 205 3.67927 205 4.4401C205 5.20008 204.77 5.79567 204.31 6.22982C203.849 6.66355 203.218 6.88021 202.416 6.88021H200.885V9H200V2H202.417C203.218 2 203.85 2.2158 204.31 2.64868ZM203.673 5.60493C203.968 5.33433 204.116 4.94605 204.116 4.4401C204.116 3.93246 203.968 3.54418 203.673 3.27528C203.377 3.00467 202.95 2.86958 202.39 2.86958H200.885V6.00935H202.39C202.95 6.00935 203.377 5.87553 203.673 5.60493Z" fill="white"/>
<path d="M208.7 8.54639C208.168 8.24317 207.753 7.82695 207.453 7.29527C207.151 6.764 207 6.16585 207 5.50083C207 4.83622 207.151 4.23848 207.453 3.70638C207.753 3.17511 208.171 2.7589 208.705 2.45526C209.239 2.15244 209.836 2 210.495 2C211.01 2 211.481 2.08931 211.908 2.26834C212.336 2.44778 212.699 2.71279 213 3.06586L212.389 3.68229C211.893 3.14022 211.272 2.87022 210.533 2.87022C210.042 2.87022 209.599 2.98362 209.205 3.21166C208.809 3.44054 208.499 3.7554 208.277 4.15582C208.053 4.55583 207.942 5.00528 207.942 5.49999C207.942 5.99554 208.053 6.44415 208.277 6.84417C208.499 7.24501 208.809 7.55986 209.205 7.78832C209.599 8.01637 210.043 8.12976 210.533 8.12976C211.268 8.12976 211.886 7.85645 212.389 7.30856L213 7.92498C212.698 8.27723 212.333 8.54307 211.904 8.72667C211.473 8.9086 211 8.99999 210.485 8.99999C209.826 9.00165 209.23 8.85087 208.7 8.54639Z" fill="white"/>
<path d="M218 2.86953H215.92V9H215.071V2.86953H213V2H218V2.86953Z" fill="white"/>
<path d="M223.685 5.97512C223.894 6.26567 224 6.63651 224 7.09017C224 7.69761 223.809 8.167 223.426 8.4996C223.044 8.83306 222.487 9 221.759 9H219V2H221.594C222.255 2 222.771 2.1542 223.141 2.46471C223.513 2.77481 223.698 3.21955 223.698 3.79981C223.698 4.17999 223.615 4.5041 223.452 4.76959C223.289 5.03677 223.058 5.23685 222.758 5.37023C223.166 5.4828 223.475 5.68457 223.685 5.97512ZM219.853 5.07883H221.534C221.954 5.07883 222.274 4.98325 222.496 4.78912C222.716 4.59585 222.827 4.31294 222.827 3.93956C222.827 3.56618 222.714 3.28157 222.491 3.08405C222.267 2.88822 221.948 2.78882 221.534 2.78882H219.853V5.07883ZM223.128 7.00947C223.128 6.60975 223.013 6.31495 222.779 6.12507C222.546 5.93519 222.202 5.83961 221.741 5.83961H219.853V8.2099H221.741C222.667 8.2099 223.128 7.81018 223.128 7.00947Z" fill="white"/>
<path d="M231 8.12962V9H226V2H230.863V2.86953H226.984V5.01936H230.439V5.86977H226.984V8.12962H231Z" fill="white"/>
<path d="M239 2V9H238.003V5.87869H233.997V9H233V2H233.997V5.00916H238.003V2H239Z" fill="white"/>
<path d="M246 2V9H245.002V5.87869H240.996V9H240V2H240.996V5.00916H245.002V2H246Z" fill="white"/>
<path d="M252.503 5.00024C252.903 5.37363 253.105 5.92372 253.105 6.64968C253.105 7.41641 252.888 8.00048 252.457 8.39936C252.029 8.79993 251.411 9 250.61 9H248V2H248.894V4.43995H250.772C251.526 4.43995 252.103 4.62601 252.503 5.00024ZM251.78 7.81443C252.061 7.55064 252.201 7.16961 252.201 6.66964C252.201 5.71048 251.658 5.23005 250.574 5.23005H248.894V8.21033H250.574C251.098 8.2099 251.501 8.07822 251.78 7.81443ZM254.106 2H255V9H254.106V2Z" fill="white"/>
<path d="M257 1.89017H257.981V7.37431L262.088 1.89017H263V9H262.028V3.52493L257.912 8.99957H257V1.89017ZM258.73 1.03159C258.437 0.791276 258.286 0.447411 258.278 0H258.984C258.989 0.264477 259.081 0.468553 259.256 0.615246C259.432 0.761075 259.674 0.832694 259.985 0.832694C260.282 0.832694 260.522 0.761075 260.704 0.615246C260.886 0.468553 260.98 0.264477 260.986 0H261.68C261.674 0.440508 261.524 0.782216 261.23 1.02555C260.936 1.26975 260.52 1.39228 259.985 1.39228C259.442 1.39228 259.024 1.27191 258.73 1.03159Z" fill="white"/>
</svg>
